<svg xmlns="http://www.w3.org/2000/svg" width="430" height="430" fill="none" viewBox="0 0 430 430"><g stroke-linecap="round" stroke-linejoin="round" stroke-width="12"><path stroke="#121331" d="M154.982 60H100v50h54.982m120.036-50H330v50h-54.982M180 290v85m70-85v85m-85-85h100"/><path stroke="#08a88a" d="M310 205h30m-30 40h30m-30 40h30m-30 40h30M90 205h30m-30 40h30m-30 40h30m-30 40h30"/><path stroke="#121331" d="M310 110v265H120V110"/><path stroke="#08a88a" d="M160 240h35m40 0h35m-110-40h35m40 0h35M150 85c0-35.898 29.101-65 65-65s65 29.102 65 65c0 35.899-29.101 65-65 65s-65-29.101-65-65m85-25v25m0 25V85m-40-25v25m0 25V85m40 0h-40"/><path stroke="#121331" d="M120 375H55V160h65m190 215h65V160h-65"/></g></svg>